<mxfile host="app.diagrams.net" modified="2023-08-29T09:36:55.312Z" agent="Mozilla/5.0 (Macintosh; Intel Mac OS X 10_15_7) AppleWebKit/537.36 (KHTML, like Gecko) Chrome/116.0.0.0 Safari/537.36" etag="NcthJeASczcLl7NR-ORd" version="21.6.9" type="github">
  <diagram name="第 1 页" id="7zn-ezLdLINr86ZRgSNU">
    <mxGraphModel dx="1546" dy="830" grid="1" gridSize="10" guides="1" tooltips="1" connect="1" arrows="1" fold="1" page="1" pageScale="1" pageWidth="827" pageHeight="1169" math="0" shadow="0">
      <root>
        <mxCell id="0" />
        <mxCell id="1" parent="0" />
        <mxCell id="I3Jwzm5ya4WKifOEzOHO-5" value="" style="edgeStyle=orthogonalEdgeStyle;rounded=0;orthogonalLoop=1;jettySize=auto;html=1;" edge="1" parent="1" source="I3Jwzm5ya4WKifOEzOHO-1" target="I3Jwzm5ya4WKifOEzOHO-2">
          <mxGeometry relative="1" as="geometry" />
        </mxCell>
        <mxCell id="I3Jwzm5ya4WKifOEzOHO-8" value="输入" style="edgeLabel;html=1;align=center;verticalAlign=middle;resizable=0;points=[];" vertex="1" connectable="0" parent="I3Jwzm5ya4WKifOEzOHO-5">
          <mxGeometry x="-0.1" relative="1" as="geometry">
            <mxPoint as="offset" />
          </mxGeometry>
        </mxCell>
        <mxCell id="I3Jwzm5ya4WKifOEzOHO-7" value="" style="edgeStyle=orthogonalEdgeStyle;rounded=0;orthogonalLoop=1;jettySize=auto;html=1;" edge="1" parent="1" source="I3Jwzm5ya4WKifOEzOHO-1" target="I3Jwzm5ya4WKifOEzOHO-4">
          <mxGeometry relative="1" as="geometry" />
        </mxCell>
        <mxCell id="I3Jwzm5ya4WKifOEzOHO-9" value="构建" style="edgeLabel;html=1;align=center;verticalAlign=middle;resizable=0;points=[];" vertex="1" connectable="0" parent="I3Jwzm5ya4WKifOEzOHO-7">
          <mxGeometry x="-0.3111" y="-2" relative="1" as="geometry">
            <mxPoint as="offset" />
          </mxGeometry>
        </mxCell>
        <mxCell id="I3Jwzm5ya4WKifOEzOHO-1" value="Option配置" style="rounded=0;whiteSpace=wrap;html=1;" vertex="1" parent="1">
          <mxGeometry x="300" y="230" width="120" height="60" as="geometry" />
        </mxCell>
        <mxCell id="I3Jwzm5ya4WKifOEzOHO-6" value="输入" style="edgeStyle=orthogonalEdgeStyle;rounded=0;orthogonalLoop=1;jettySize=auto;html=1;" edge="1" parent="1" source="I3Jwzm5ya4WKifOEzOHO-2" target="I3Jwzm5ya4WKifOEzOHO-3">
          <mxGeometry relative="1" as="geometry" />
        </mxCell>
        <mxCell id="I3Jwzm5ya4WKifOEzOHO-2" value="应用配置" style="rounded=0;whiteSpace=wrap;html=1;" vertex="1" parent="1">
          <mxGeometry x="300" y="330" width="120" height="60" as="geometry" />
        </mxCell>
        <mxCell id="I3Jwzm5ya4WKifOEzOHO-3" value="HTTP/gRPC服务配置" style="rounded=0;whiteSpace=wrap;html=1;" vertex="1" parent="1">
          <mxGeometry x="300" y="430" width="120" height="60" as="geometry" />
        </mxCell>
        <mxCell id="I3Jwzm5ya4WKifOEzOHO-4" value="命令行参数" style="rounded=0;whiteSpace=wrap;html=1;" vertex="1" parent="1">
          <mxGeometry x="510" y="230" width="120" height="60" as="geometry" />
        </mxCell>
      </root>
    </mxGraphModel>
  </diagram>
</mxfile>
